<?xml version="1.0" encoding="UTF-8"?>
<svg id="Layer_1" data-name="Layer 1" xmlns="http://www.w3.org/2000/svg" xmlns:xlink="http://www.w3.org/1999/xlink" viewBox="0 0 223.01 165">
  <defs>
    <style>
      .cls-1 {
        fill: url(#linear-gradient);
      }

      .cls-1, .cls-2, .cls-3 {
        stroke-width: 0px;
      }

      .cls-4 {
        fill: url(#linear-gradient-2);
        stroke: url(#linear-gradient-3);
      }

      .cls-4, .cls-5, .cls-6, .cls-7, .cls-8, .cls-9, .cls-10, .cls-11 {
        stroke-linejoin: round;
      }

      .cls-4, .cls-5, .cls-6, .cls-12, .cls-9 {
        fill-rule: evenodd;
      }

      .cls-4, .cls-10 {
        stroke-width: .95px;
      }

      .cls-5 {
        stroke-width: 1.1px;
      }

      .cls-5, .cls-6, .cls-7, .cls-8, .cls-9, .cls-10, .cls-11 {
        stroke: #000;
      }

      .cls-5, .cls-6, .cls-9, .cls-10, .cls-3, .cls-11 {
        fill: #ffc28a;
      }

      .cls-13 {
        fill: #0027ab;
      }

      .cls-13, .cls-14, .cls-15 {
        isolation: isolate;
      }

      .cls-13, .cls-15 {
        font-family: Arial-ItalicMT, Arial;
        font-size: 21.92px;
        font-style: italic;
      }

      .cls-6 {
        stroke-width: 1.03px;
      }

      .cls-7 {
        stroke-width: .5px;
      }

      .cls-7, .cls-8 {
        fill: none;
      }

      .cls-12 {
        fill: #fff;
        stroke: #f5f5f5;
        stroke-width: 4.18px;
      }

      .cls-2, .cls-15 {
        fill: red;
      }

      .cls-8 {
        stroke-width: .44px;
      }

      .cls-9 {
        stroke-width: 1.14px;
      }

      .cls-11 {
        stroke-width: 1.06px;
      }
    </style>
    <linearGradient id="linear-gradient" x1="-1457.21" y1="61.8" x2="-1444.15" y2="61.8" gradientTransform="translate(-1285.54 152.81) rotate(-180) scale(.94 1.14)" gradientUnits="userSpaceOnUse">
      <stop offset="0" stop-color="#64abff"/>
      <stop offset="1" stop-color="#0027ab"/>
    </linearGradient>
    <linearGradient id="linear-gradient-2" x1="-1288.12" y1="-301.53" x2="-1327.35" y2="-317.15" gradientTransform="translate(-1045.59 -213.35) rotate(-180) scale(.94 .96)" gradientUnits="userSpaceOnUse">
      <stop offset="0" stop-color="#bbce52"/>
      <stop offset="1" stop-color="#fff"/>
    </linearGradient>
    <linearGradient id="linear-gradient-3" x1="-1279.81" y1="-301.83" x2="-1324.31" y2="-316.38" gradientTransform="translate(-1045.59 -213.35) rotate(-180) scale(.94 .96)" gradientUnits="userSpaceOnUse">
      <stop offset="0" stop-color="#000"/>
      <stop offset="1" stop-color="#000" stop-opacity="0"/>
    </linearGradient>
  </defs>
  <g id="layer2">
    <rect id="rect2106" class="cls-1" x="78.64" width="12.33" height="165"/>
    <g id="g8838">
      <g id="g8840">
        <path id="path8842" class="cls-2" d="M71.95,93.77l-2.46.29-3.04.62-1.44.34-1.38.37-1.3.4-1.22.44-1.11.48-1.02.52-.89.58-.78.63-.64.69-.49.76-.34.82-.16.9v.47s.12.46.12.46l.2.46.29.44.82.87,1.14.82,1.42.78,1.67.73,1.9.67,2.08.61,2.24.55,2.38.47,2.48.39,2.55.32,2.59.22,2.6.13,2.58.03,2.53-.07,4.69-.3,4.13-.41,1.87-.24,1.74-.27,1.63-.29,1.51-.32,1.42-.35,1.31-.37,1.23-.4,1.13-.43,1.07-.45.99-.49.93-.5.86-.53-3.64-.69,11.25-2.46,1.54,4.19-5.13-.35-.92.61-1.07.59-1.22.57-1.36.54-1.52.52-1.64.49-1.79.46-1.92.42-2.05.39-2.17.35-2.31.3-2.41.26-2.53.22-2.65.17-5.61.17-2.9-.02-2.85-.11-2.81-.21-2.73-.29-2.63-.38-2.5-.46-2.39-.53-2.22-.6-2.06-.67-1.86-.74-1.65-.79-1.42-.85-1.17-.9-.89-.95-.6-.99-.3-1.03.03-.86.3-.84.55-.82.76-.8.97-.78,1.15-.74,1.31-.71,1.45-.67,1.56-.63,1.68-.58,1.74-.53,1.8-.48,1.84-.42,1.85-.36,1.85-.29,1.67-.11-.18,1.56Z"/>
      </g>
    </g>
    <g id="g8846">
      <g id="g8850">
        <g id="g8852">
          <path id="path8854" class="cls-2" d="M73.24,85.13l-7.09.79-3.88.55-3.81.64-3.71.73-3.57.82-3.42.91-3.2,1-2.97,1.1-2.71,1.19-2.41,1.3-2.07,1.4-1.71,1.5-1.31,1.61-.87,1.72-.54,1.83v.93l.34.9.38.88.55.85,1.57,1.64,2.15,1.53,2.66,1.41,3.1,1.31,3.47,1.19,3.77,1.08,4.02.96,4.18.84,4.28.71,4.31.58,4.26.46,4.16.32,3.99.2h3.75l4.79-.08,4.63-.2,4.44-.3,4.27-.39,4.08-.47,3.89-.55,3.67-.62,3.46-.68,3.24-.74,3.01-.79,2.77-.83,2.52-.87,2.27-.91,1.99-.93,1.72-.95,1.44-.96-3.6-.68,11.11-2.43,1.52,4.14-5.07-.34-1.53,1.06-1.93,1.05-2.31,1.03-2.66,1.01-2.99.98-3.29.93-3.57.88-3.83.82-4.04.75-4.25.67-4.44.58-4.57.48-4.71.37-4.82.25-4.88.07h-4.94l-3.22-.07-3.58-.19-7.94-.7-4.21-.52-4.26-.65-4.25-.77-4.16-.92-3.97-1.05-3.72-1.21-3.4-1.37-3-1.53-2.53-1.71-1.96-1.89-1.34-2.07-.62-2.26.13-1.73.72-1.7,1.28-1.66,1.78-1.61,2.24-1.55,2.64-1.48,3.01-1.41,3.32-1.31,3.6-1.22,3.82-1.12,3.99-1,4.12-.88,4.2-.74,4.24-.6,4.23-.44,4.01-.28-.19,1.43Z"/>
        </g>
      </g>
    </g>
    <path id="path7334" class="cls-12" d="M84.98,88.67l.4-68.33-2.19-.02,2.21-7.91,1.93,7.91-2.01-.04"/>
    <g id="g8858">
      <g id="g8862">
        <g id="g8864">
          <path id="path8866" class="cls-2" d="M74.34,76.66l-14.43,1.56-7.06.94-6.68,1.07-6.26,1.2-5.83,1.33-5.37,1.46-4.91,1.6-4.4,1.74-3.9,1.88-3.37,2.02-2.81,2.17-2.23,2.31-1.65,2.46-1.04,2.61-.4,2.76.11,1.4.39,1.35.66,1.31.92,1.25,2.53,2.38,3.41,2.19,4.16,2.01,4.82,1.83,5.37,1.65,5.81,1.47,6.15,1.3,6.37,1.12,6.5.95,6.52.78,6.42.61,6.24.44,5.93.28,5.53-.08h7.43l7.12-.19,6.79-.5,6.46-.67,6.12-.83,5.76-.96,5.37-1.07,5.01-1.15,4.61-1.22,4.21-1.26,3.79-1.27,3.36-1.27,2.93-1.24,2.47-1.19,2.01-1.12,1.54-1.02-3.6-.68,11.11-2.43,1.52,4.14-5.07-.34-1.58,1.11-2.1,1.19-2.61,1.26-3.1,1.31-3.6,1.33-4.06,1.33-4.53,1.31-4.99,1.26-5.43,1.19-5.86,1.1-6.29.99-6.7.85-7.1.69-7.5.51-7.88.18h-8.25l-4.2.12-4.98-.24-11.68-.95-13.02-1.64-6.66-1.1-6.57-1.29-6.34-1.5-5.96-1.7-5.43-1.92-4.78-2.14-3.97-2.38-1.64-1.28-1.37-1.34-1.11-1.4-.81-1.47-.51-1.53-.18-1.6.28-2.49.88-2.46,1.48-2.42,2.06-2.36,2.65-2.29,3.23-2.2,3.83-2.11,4.4-1.99,4.99-1.87,5.56-1.73,6.15-1.58,6.71-1.41,7.28-1.24,7.87-1.04,8.42-.83,8.79-.67-.21,1.39h0Z"/>
        </g>
      </g>
    </g>
    <g id="g2902">
      <path id="path2107" class="cls-4" d="M222.64,58.86c-6.34,7.47-24.76-1.12-32.76-.83-10.15,1.57-13.41,12.8-18.2,20.45-5.35,6.67-9.89,15.62-5.76,24.16,1.19,3.16,14.28,15.79,29.8,24.4"/>
      <path id="path2087" class="cls-10" d="M122.59,85.25c1.15-1.32-7.08,6.82,33.91,13.3,7.9,1.26,9.34,3.83,13.77,3.98,8.85,1.35,33.07-37.63,15.44-42.88-17.63-5.25-14.37-10.19-27.97-21.43-7.94-5.35-11.52-18.14-12.57-29.49-2.49-10.93-8.38-7.64-11.09-4.3-2.61,3.62-2.87,16.33-2.04,20.98,1.1,2.43,2.74,14.49,8.37,20.03.31.31-6.38-10.33-4.81-7.37l-5.93.72"/>
      <path id="path2276" class="cls-8" d="M169.63,86.44c-21.16-1.21-22.1-20.18-27.63-32.27"/>
      <path id="path2064" class="cls-6" d="M111.16,73.54c-4.65,8.66,7.19,18.41,15.68,18.36,8.01-.04,21.3-2.38,15.19-11.44l-1.92-1.47"/>
      <path id="path2068" class="cls-7" d="M140.78,80.45c-6.81-.47-6.02,10.6.97,7.12"/>
      <path id="path2062" class="cls-5" d="M108.59,65.33c-5.34,8.64,7.14,20.08,16.9,20.03,9.67-.9,24.45-2.95,17.44-11.98l-2.2-1.47"/>
      <path id="path2097" class="cls-9" d="M108.55,52.56c-5.14,13.17,5.07,21.9,15.48,21.85,10.25-.05,26.09-2.94,18.61-11.97l-2.35-1.47"/>
      <path id="path2093" class="cls-11" d="M120.75,45.56c-.32,2.92.72,3.2,3.43,3.66,9.18-.36,14.22-.65,19.36,1.27,1.96.73,2.97,4,2.48,7.68-2.79,5.59-13.21,4.98-23.14,3.97-14.23-1.7-16-9.87-13.84-17.2,1.61-5.47,18.82-5.83,20.63-6.16"/>
      <path id="path2066" class="cls-7" d="M141.42,73.64c-6.81-.47-6.02,10.6.97,7.12"/>
      <path id="path2099" class="cls-7" d="M140.87,63.17c-6.81-.47-6.02,10.6.97,7.12"/>
      <path id="path2101" class="cls-7" d="M143.82,51.39c-8.58.04-7.78,9.1.01,8.12"/>
    </g>
    <path id="path2919" class="cls-3" d="M123.37,48.74c-1.22-.25-1.73-.49-2.03-.93-.26-.38-.3-.59-.3-1.48,0-.63-.01-.79-.07-.79-.04,0-.06-.02-.05-.05,0-.03,1.88-1.46,4.15-3.19,3.21-2.44,4.18-3.15,4.33-3.18.2-.04.2-.04.17.11-.04.2-1.43,9.38-1.43,9.45,0,.04-.58.08-1.68.12-2.18.08-2.4.08-3.09-.07Z"/>
    <g id="text2886" class="cls-14">
      <text class="cls-13" transform="translate(55.97 48.82)"><tspan x="0" y="0">I</tspan></text>
    </g>
    <g id="text2886-1" class="cls-14">
      <text class="cls-15" transform="translate(149.36 138.68)"><tspan x="0" y="0">B</tspan></text>
    </g>
  </g>
</svg>