<svg width="29" height="28" viewBox="0 0 29 28" fill="none" xmlns="http://www.w3.org/2000/svg">
<path d="M3 9.5L1.58579 10.9142L0.171571 9.5L1.58578 8.08579L3 9.5ZM10.5 28C9.39543 28 8.5 27.1046 8.5 26C8.5 24.8954 9.39543 24 10.5 24L10.5 28ZM9.08579 18.4142L1.58579 10.9142L4.41421 8.08579L11.9142 15.5858L9.08579 18.4142ZM1.58578 8.08579L9.08579 0.585786L11.9142 3.41421L4.41421 10.9142L1.58578 8.08579ZM3 7.5L18.75 7.5L18.75 11.5L3 11.5L3 7.5ZM18.75 28L10.5 28L10.5 24L18.75 24L18.75 28ZM29 17.75C29 23.4109 24.4109 28 18.75 28L18.75 24C22.2018 24 25 21.2018 25 17.75L29 17.75ZM18.75 7.5C24.4109 7.5 29 12.0891 29 17.75L25 17.75C25 14.2982 22.2018 11.5 18.75 11.5L18.75 7.5Z" fill="white"/>
</svg>
