<svg width="27" height="31" viewBox="0 0 27 31" fill="none" xmlns="http://www.w3.org/2000/svg">
<path fill-rule="evenodd" clip-rule="evenodd" d="M0.514615 9.70313C0 10.822 0 12.0949 0 14.6407V22.5914C0 26.127 0 27.8947 1.09835 28.9931C2.1902 30.0849 3.94358 30.0914 7.43747 30.0914V20.7166C7.43747 19.1287 8.72465 17.8416 10.3125 17.8416H15.9375C17.5253 17.8416 18.8125 19.1287 18.8125 20.7166V30.0914C22.3064 30.0914 24.0598 30.085 25.1516 28.9931C26.25 27.8947 26.25 26.127 26.25 22.5914V14.6407C26.25 12.0949 26.25 10.822 25.7354 9.70313C25.2208 8.58424 24.2543 7.75585 22.3214 6.09907L20.4464 4.49193C16.9527 1.49731 15.2058 0 13.125 0C11.0442 0 9.29732 1.49731 5.8036 4.49192L5.8036 4.49193L3.9286 6.09907L3.92859 6.09907C1.99568 7.75585 1.02923 8.58424 0.514615 9.70313ZM16.8125 30.0914V20.7166C16.8125 20.2333 16.4207 19.8416 15.9375 19.8416H10.3125C9.82922 19.8416 9.43747 20.2333 9.43747 20.7166V30.0914H16.8125Z" fill="white"/>
</svg>
