<svg width="21" height="31" viewBox="0 0 21 31" fill="none" xmlns="http://www.w3.org/2000/svg">
<path fill-rule="evenodd" clip-rule="evenodd" d="M3.40152 2.00619L13.7909 0.43405C16.9976 -0.0512032 18.601 -0.29383 19.6448 0.603904C20.6886 1.50164 20.6886 3.12326 20.6886 6.36651V13.0435H12.1282L15.3159 9.20645L12.2392 6.65037L6.32814 13.7655L5.26638 15.0435L6.32814 16.3216L12.2392 23.4367L15.3159 20.8806L12.1282 17.0435H20.6886V23.7206C20.6886 26.9638 20.6886 28.5854 19.6448 29.4832C18.601 30.3809 16.9976 30.1383 13.7909 29.653L3.40152 28.0809C1.77874 27.8353 0.967352 27.7125 0.483676 27.1502C0 26.5878 0 25.7672 0 24.1259V5.96117C0 4.31991 0 3.49929 0.483676 2.93691C0.967352 2.37454 1.77874 2.25176 3.40152 2.00619Z" fill="white"/>
</svg>
