<svg width="508" height="219" viewBox="0 0 508 219" fill="none" xmlns="http://www.w3.org/2000/svg">
    <mask id="path-1-inside-1_286_1598" fill="white">
        <path d="M291.487 16.2999C299.888 4.26869 317.067 -3.01881 329.75 4.39369C342.572 11.8874 344.525 29.1749 345.996 43.9374C347.467 58.6999 355.366 72.2135 368.518 72.2135C381.67 72.2135 384.257 66.0386 392.43 55.4951C400.604 44.9515 417.484 29.4812 431.858 24.4812C441.993 20.9562 454.145 24.2812 461.069 32.4687C467.993 40.6562 469.232 53.1749 464.042 62.5624C458.133 73.2562 445.662 78.6249 433.629 80.8437C421.597 83.0687 409.126 82.9374 397.369 86.3124C385.606 89.6874 374.049 97.7624 371.451 109.706C368.765 122.094 376.365 134.312 384.829 143.762C393.287 153.219 403.31 162.087 407.129 174.175C410.942 186.219 407.417 200.269 398.377 209.1C389.324 217.931 375.182 221.125 363.206 217.056C341.05 209.512 329.268 180.844 305.986 178.419C281.276 175.831 263.621 204.694 238.955 207.762C226.197 209.356 212.774 203.019 205.907 192.162C199.039 181.306 199.077 166.487 205.994 155.669C214.753 141.962 233.046 134.725 237.371 119.056C240.577 107.437 234.554 95.0124 226.028 86.4624C217.507 77.9249 206.664 72.1437 196.986 64.9312C187.313 57.6999 178.336 48.1937 176.32 36.3062C173.86 21.8062 183.895 6.28119 198.137 2.53744C212.374 -1.20006 222.573 4.04628 233.772 21.2124C244.97 38.3786 258.087 38.6624 263.709 38.9562C281.388 39.9062 286.009 24.1437 291.487 16.2999ZM400.186 109.237C395.629 117.087 397.375 127.7 403.329 134.55C409.283 141.406 418.748 144.644 427.832 144.219C436.916 143.794 446.726 138.812 448.911 130C450.601 123.175 447.152 115.862 441.843 111.25C431.419 102.206 409.051 93.9999 400.192 109.231L400.186 109.237ZM487.068 1.31244C478.598 3.23744 472.557 12.5187 474.247 21.0249C475.931 29.5312 485.052 35.8249 493.623 34.3874C502.181 32.9499 508.748 24.0249 507.552 15.4374C506.363 6.84994 497.617 0.0499426 488.978 0.987443"/>
    </mask>
    <path d="M291.487 16.2999C299.888 4.26869 317.067 -3.01881 329.75 4.39369C342.572 11.8874 344.525 29.1749 345.996 43.9374C347.467 58.6999 355.366 72.2135 368.518 72.2135C381.67 72.2135 384.257 66.0386 392.43 55.4951C400.604 44.9515 417.484 29.4812 431.858 24.4812C441.993 20.9562 454.145 24.2812 461.069 32.4687C467.993 40.6562 469.232 53.1749 464.042 62.5624C458.133 73.2562 445.662 78.6249 433.629 80.8437C421.597 83.0687 409.126 82.9374 397.369 86.3124C385.606 89.6874 374.049 97.7624 371.451 109.706C368.765 122.094 376.365 134.312 384.829 143.762C393.287 153.219 403.31 162.087 407.129 174.175C410.942 186.219 407.417 200.269 398.377 209.1C389.324 217.931 375.182 221.125 363.206 217.056C341.05 209.512 329.268 180.844 305.986 178.419C281.276 175.831 263.621 204.694 238.955 207.762C226.197 209.356 212.774 203.019 205.907 192.162C199.039 181.306 199.077 166.487 205.994 155.669C214.753 141.962 233.046 134.725 237.371 119.056C240.577 107.437 234.554 95.0124 226.028 86.4624C217.507 77.9249 206.664 72.1437 196.986 64.9312C187.313 57.6999 178.336 48.1937 176.32 36.3062C173.86 21.8062 183.895 6.28119 198.137 2.53744C212.374 -1.20006 222.573 4.04628 233.772 21.2124C244.97 38.3786 258.087 38.6624 263.709 38.9562C281.388 39.9062 286.009 24.1437 291.487 16.2999ZM400.186 109.237C395.629 117.087 397.375 127.7 403.329 134.55C409.283 141.406 418.748 144.644 427.832 144.219C436.916 143.794 446.726 138.812 448.911 130C450.601 123.175 447.152 115.862 441.843 111.25C431.419 102.206 409.051 93.9999 400.192 109.231L400.186 109.237ZM487.068 1.31244C478.598 3.23744 472.557 12.5187 474.247 21.0249C475.931 29.5312 485.052 35.8249 493.623 34.3874C502.181 32.9499 508.748 24.0249 507.552 15.4374C506.363 6.84994 497.617 0.0499426 488.978 0.987443" fill="#80C23E" fill-opacity="0.75"/>
    <path d="M291.487 16.2999L298.045 20.8805L298.046 20.8802L291.487 16.2999ZM329.75 4.39369L333.787 -2.5131L333.787 -2.51328L329.75 4.39369ZM345.996 43.9374L338.035 44.7308L338.035 44.7308L345.996 43.9374ZM431.858 24.4812L429.23 16.9251L429.229 16.9253L431.858 24.4812ZM461.069 32.4687L454.96 37.6345L454.96 37.6345L461.069 32.4687ZM464.042 62.5624L457.041 58.6918L457.04 58.6929L464.042 62.5624ZM433.629 80.8437L432.179 72.9763L432.175 72.9771L433.629 80.8437ZM397.369 86.3124L399.575 94.0022L399.576 94.0019L397.369 86.3124ZM371.451 109.706L363.634 108.006L363.632 108.011L371.451 109.706ZM384.829 143.762L390.792 138.429L390.789 138.425L384.829 143.762ZM407.129 174.175L399.501 176.585L399.502 176.589L407.129 174.175ZM398.377 209.1L403.963 214.826L403.967 214.822L398.377 209.1ZM363.206 217.056L360.627 224.629L360.632 224.631L363.206 217.056ZM305.986 178.419L305.152 186.375L305.157 186.376L305.986 178.419ZM238.955 207.762L237.968 199.824L237.964 199.824L238.955 207.762ZM205.907 192.162L199.146 196.439L199.146 196.439L205.907 192.162ZM205.994 155.669L212.734 159.978L212.735 159.976L205.994 155.669ZM237.371 119.056L245.083 121.185L245.083 121.184L237.371 119.056ZM226.028 86.4624L231.692 80.8133L231.69 80.8112L226.028 86.4624ZM196.986 64.9312L192.195 71.3385L192.205 71.3459L196.986 64.9312ZM176.32 36.3062L184.207 34.9687L184.207 34.9679L176.32 36.3062ZM198.137 2.53744L196.106 -5.20034L196.104 -5.19972L198.137 2.53744ZM263.709 38.9562L264.138 30.9677L264.126 30.9671L263.709 38.9562ZM400.186 109.237L394.533 103.577L393.793 104.316L393.268 105.221L400.186 109.237ZM403.329 134.55L409.369 129.305L409.367 129.302L403.329 134.55ZM448.911 130L456.676 131.925L456.676 131.923L448.911 130ZM441.843 111.25L447.09 105.211L447.086 105.207L441.843 111.25ZM400.192 109.231L405.846 114.891L406.584 114.155L407.108 113.253L400.192 109.231ZM474.247 21.0249L482.095 19.4713L482.093 19.4657L474.247 21.0249ZM493.623 34.3874L494.946 42.2772L494.948 42.2769L493.623 34.3874ZM507.552 15.4374L499.628 16.5351L499.629 16.5407L507.552 15.4374ZM298.046 20.8802C301.279 16.2505 306.293 12.4628 311.63 10.6152C316.929 8.78065 321.861 9.04895 325.714 11.3007L333.787 -2.51328C324.956 -7.67407 314.957 -7.46827 306.395 -4.50438C297.872 -1.5535 290.096 4.31813 284.927 11.7197L298.046 20.8802ZM325.713 11.3005C329.786 13.681 332.568 17.8142 334.51 23.8796C336.487 30.0529 337.288 37.2327 338.035 44.7308L353.957 43.1441C353.233 35.8797 352.321 27.0345 349.748 19C347.141 10.8575 342.536 2.60018 333.787 -2.5131L325.713 11.3005ZM338.035 44.7308C338.875 53.1517 341.573 61.6764 346.409 68.3197C351.351 75.1081 358.819 80.2135 368.518 80.2135V64.2135C365.065 64.2135 362.008 62.5622 359.345 58.9032C356.575 55.099 354.589 49.4857 353.957 43.1441L338.035 44.7308ZM368.518 80.2135C376.622 80.2135 382.534 78.2136 387.571 73.8619C389.839 71.9031 391.727 69.6399 393.419 67.4554C394.273 66.3536 395.146 65.1802 396.008 64.0239C396.886 62.8469 397.781 61.65 398.753 60.3964L386.108 50.5938C385.036 51.9761 384.063 53.2785 383.183 54.4573C382.289 55.6568 381.515 56.6956 380.772 57.6554C379.27 59.5941 378.156 60.8516 377.111 61.7544C375.524 63.126 373.566 64.2135 368.518 64.2135V80.2135ZM398.753 60.3964C402.438 55.6424 408.276 49.5566 414.912 44.0786C421.624 38.537 428.587 34.089 434.486 32.0371L429.229 16.9253C420.754 19.8734 412.09 25.6605 404.726 31.74C397.284 37.8831 390.596 44.8042 386.108 50.5938L398.753 60.3964ZM434.485 32.0373C441.496 29.5991 450.174 31.9752 454.96 37.6345L467.177 27.3028C458.115 16.5872 442.49 12.3133 429.23 16.9251L434.485 32.0373ZM454.96 37.6345C459.741 43.2877 460.624 52.2108 457.041 58.6918L471.044 66.4331C477.84 54.1391 476.244 38.0247 467.177 27.3028L454.96 37.6345ZM457.04 58.6929C452.886 66.2097 443.423 70.9029 432.179 72.9763L435.08 88.7111C447.9 86.347 463.379 80.3026 471.044 66.432L457.04 58.6929ZM432.175 72.9771C426.539 74.0191 420.877 74.4986 414.525 75.1944C408.366 75.8689 401.736 76.7357 395.162 78.623L399.576 94.0019C404.759 92.5142 410.242 91.7591 416.267 91.0993C422.097 90.4606 428.687 89.8933 435.084 88.7103L432.175 72.9771ZM395.163 78.6227C382.136 82.3602 367.141 91.8826 363.634 108.006L379.268 111.407C380.957 103.642 389.075 97.0147 399.575 94.0022L395.163 78.6227ZM363.632 108.011C360.05 124.533 370.243 139.467 378.87 149.1L390.789 138.425C382.488 129.158 377.48 119.654 379.269 111.401L363.632 108.011ZM378.866 149.096C383.598 154.386 387.574 158.244 391.541 163.065C395.266 167.592 398.026 171.917 399.501 176.585L414.757 171.765C412.413 164.345 408.252 158.193 403.896 152.899C399.783 147.9 394.518 142.595 390.792 138.429L378.866 149.096ZM399.502 176.589C402.402 185.749 399.669 196.653 392.786 203.377L403.967 214.822C415.164 203.884 419.481 186.688 414.756 171.761L399.502 176.589ZM392.79 203.374C385.897 210.099 374.909 212.583 365.779 209.481L360.632 224.631C375.455 229.667 392.752 225.764 403.963 214.826L392.79 203.374ZM365.784 209.483C356.83 206.434 349.806 199.067 340.604 190.091C332.149 181.844 321.558 171.997 306.814 170.462L305.157 186.376C313.696 187.265 320.637 192.966 329.432 201.545C337.481 209.396 347.426 220.134 360.627 224.629L365.784 209.483ZM306.819 170.462C291.161 168.823 278.26 177.271 267.923 184.377C256.638 192.133 247.906 198.587 237.968 199.824L239.943 215.701C254.671 213.869 267.099 204.357 276.986 197.562C287.819 190.116 296.101 185.427 305.152 186.375L306.819 170.462ZM237.964 199.824C228.278 201.034 217.877 196.121 212.667 187.886L199.146 196.439C207.672 209.917 224.115 217.678 239.947 215.701L237.964 199.824ZM212.667 187.886C207.46 179.653 207.489 168.182 212.734 159.978L199.254 151.359C190.664 164.793 190.618 182.959 199.146 196.439L212.667 187.886ZM212.735 159.976C216.333 154.347 221.824 150.113 228.64 144.096C234.893 138.575 242.236 131.496 245.083 121.185L229.66 116.927C228.181 122.285 224.215 126.659 218.05 132.101C212.449 137.046 204.414 143.284 199.253 151.361L212.735 159.976ZM245.083 121.184C249.381 105.604 241.195 90.3417 231.692 80.8133L220.363 92.1116C227.914 99.6832 231.772 109.271 229.66 116.929L245.083 121.184ZM231.69 80.8112C226.897 76.0086 221.567 72.0955 216.461 68.5992C211.143 64.9574 206.448 62.0057 201.766 58.5164L192.205 71.3459C197.202 75.0692 202.768 78.6143 207.421 81.8006C212.286 85.1325 216.638 88.3787 220.365 92.1136L231.69 80.8112ZM201.776 58.5239C192.571 51.6422 185.695 43.7396 184.207 34.9687L168.432 37.6437C170.977 52.6478 182.055 63.7577 192.195 71.3385L201.776 58.5239ZM184.207 34.9679C182.442 24.5645 189.924 12.9683 200.171 10.2746L196.104 -5.19972C177.866 -0.405912 165.277 19.0479 168.433 37.6445L184.207 34.9679ZM200.169 10.2752C205.796 8.79782 209.788 9.2473 213.392 11.1282C217.347 13.1923 221.78 17.472 227.071 25.5834L240.472 16.8414C234.565 7.78676 228.299 0.860197 220.795 -3.05611C212.941 -7.15549 204.715 -7.46044 196.106 -5.20034L200.169 10.2752ZM227.071 25.5834C233.502 35.4404 240.81 40.8881 247.742 43.7907C254.545 46.6392 260.507 46.7998 263.292 46.9453L264.126 30.9671C261.289 30.8188 257.882 30.6906 253.921 29.0322C250.09 27.428 245.24 24.1507 240.472 16.8414L227.071 25.5834ZM263.28 46.9447C275.144 47.5822 282.99 42.3666 288.289 36.083C290.79 33.117 292.721 29.9334 294.252 27.2792C295.931 24.3678 296.94 22.4637 298.045 20.8805L284.928 11.7194C283.294 14.0581 281.672 17.0657 280.391 19.2862C278.962 21.7638 277.606 23.9321 276.058 25.7684C273.257 29.0895 269.953 31.2802 264.138 30.9677L263.28 46.9447ZM393.268 105.221C386.733 116.476 389.451 130.778 397.291 139.798L409.367 129.302C405.299 124.622 404.524 117.699 407.105 113.254L393.268 105.221ZM397.288 139.795C405.155 148.855 417.187 152.725 428.206 152.21L427.458 136.227C420.309 136.562 413.41 133.958 409.369 129.305L397.288 139.795ZM428.206 152.21C433.977 151.94 440.051 150.238 445.182 147.049C450.344 143.84 454.963 138.832 456.676 131.925L441.146 128.075C440.674 129.98 439.295 131.869 436.735 133.46C434.144 135.071 430.771 136.072 427.458 136.227L428.206 152.21ZM456.676 131.923C459.306 121.304 453.893 111.121 447.09 105.211L436.596 117.289C440.411 120.604 441.896 125.045 441.146 128.077L456.676 131.923ZM447.086 105.207C440.891 99.8328 431.348 94.7797 421.693 93.2376C411.867 91.6683 399.998 93.6526 393.277 105.209L407.108 113.253C409.245 109.579 412.99 108.05 419.169 109.037C425.518 110.051 432.371 113.623 436.6 117.293L447.086 105.207ZM394.539 103.571L394.533 103.577L405.84 114.898L405.846 114.891L394.539 103.571ZM485.295 -6.48864C472.617 -3.60729 463.862 9.81039 466.4 22.5842L482.093 19.4657C481.251 15.227 484.579 10.0822 488.841 9.11352L485.295 -6.48864ZM466.399 22.5786C468.926 35.3407 482.119 44.4286 494.946 42.2772L492.3 26.4976C487.985 27.2213 482.936 23.7216 482.095 19.4713L466.399 22.5786ZM494.948 42.2769C507.762 40.1245 517.271 27.2261 515.476 14.3342L499.629 16.5407C500.225 20.8238 496.6 25.7754 492.298 26.498L494.948 42.2769ZM515.477 14.3398C513.691 1.4453 501.033 -8.36773 488.115 -6.96587L489.841 8.94075C494.201 8.46761 499.035 12.2546 499.628 16.5351L515.477 14.3398Z" fill="#80C23E" mask="url(#path-1-inside-1_286_1598)"/>
    <path d="M35.263 149.425C30.336 149.425 25.7722 148.737 21.5652 147.375C17.3582 145.993 13.6833 143.937 10.5468 141.2C7.42289 138.45 4.9688 134.993 3.18459 130.825C1.39411 126.662 0.505127 121.793 0.505127 116.225C0.505127 110.743 1.39411 106.025 3.18459 102.075C4.9688 98.1122 7.32272 94.8622 10.2463 92.3247C13.1637 89.7934 16.4942 87.9247 20.238 86.7247C23.9942 85.5122 27.8318 84.8997 31.7571 84.8997C36.1645 84.8997 40.1774 85.5684 43.8022 86.8997C47.4395 88.2372 50.5697 90.0684 53.1928 92.3997C55.8096 94.7184 57.8505 97.4997 59.303 100.75C60.7679 104 61.5066 107.537 61.5066 111.35C61.5066 114.187 60.7116 116.35 59.1277 117.85C57.5375 119.35 55.3276 120.312 52.4916 120.725L21.6153 125.325C22.5293 128.075 24.4074 130.143 27.2496 131.525C30.0856 132.893 33.3348 133.575 36.9908 133.575C40.409 133.575 43.6394 133.143 46.682 132.275C49.737 131.393 52.2162 130.368 54.1193 129.2C55.4528 130.037 56.5797 131.2 57.5 132.7C58.414 134.2 58.8773 135.787 58.8773 137.45C58.8773 141.187 57.1243 143.968 53.6185 145.8C50.9641 147.218 47.9653 148.175 44.6285 148.675C41.2855 149.175 38.1678 149.425 35.263 149.425ZM31.7571 100.375C29.7538 100.375 28.0134 100.712 26.5485 101.375C25.096 102.043 23.9066 102.9 22.9925 103.95C22.0723 104.987 21.3774 106.143 20.9141 107.425C20.4633 108.712 20.1941 110.018 20.1128 111.35L41.4983 107.875C41.2479 106.212 40.3276 104.543 38.7438 102.875C37.1536 101.212 34.8247 100.375 31.7571 100.375Z" fill="#65469B"/>
    <path d="M69.126 117.1C69.126 111.6 69.9524 106.837 71.6052 102.8C73.2704 98.7685 75.5868 95.4247 78.5417 92.7747C81.5091 90.1122 84.9774 88.1372 88.934 86.8497C92.8906 85.5497 97.1602 84.8997 101.755 84.8997C103.421 84.8997 105.042 85.0497 106.613 85.3497C108.197 85.6372 109.493 85.9872 110.495 86.3997V66.1747C111.328 65.9247 112.661 65.6622 114.502 65.3747C116.336 65.0747 118.208 64.9247 120.111 64.9247C121.945 64.9247 123.592 65.0497 125.044 65.2997C126.509 65.5497 127.749 66.0497 128.75 66.7997C129.752 67.5497 130.503 68.5747 131.004 69.8747C131.505 71.1622 131.755 72.8435 131.755 74.9247V134.075C131.755 137.975 129.915 141.093 126.246 143.425C123.823 145.012 120.693 146.4 116.855 147.6C113.03 148.812 108.623 149.425 103.633 149.425C98.2057 149.425 93.3476 148.675 89.0592 147.175C84.7646 145.675 81.1335 143.518 78.1661 140.7C75.2112 137.868 72.9637 134.475 71.4299 130.525C69.8898 126.562 69.126 122.087 69.126 117.1ZM104.61 101.5C100.115 101.5 96.6593 102.793 94.2428 105.375C91.82 107.943 90.6118 111.85 90.6118 117.1C90.6118 122.25 91.7387 126.143 93.9924 128.775C96.2462 131.393 99.5016 132.7 103.759 132.7C105.242 132.7 106.588 132.475 107.79 132.025C109.005 131.562 109.95 131.037 110.62 130.45V103C108.949 102 106.945 101.5 104.61 101.5Z" fill="#65469B"/>
    <path d="M145.001 87.6497C145.834 87.3997 147.142 87.1497 148.933 86.8997C150.717 86.6497 152.57 86.5247 154.492 86.5247C156.326 86.5247 157.973 86.6497 159.425 86.8997C160.89 87.1497 162.117 87.6497 163.106 88.3997C164.108 89.1497 164.872 90.1685 165.41 91.4497C165.961 92.7372 166.236 94.4185 166.236 96.4997V123.35C166.236 126.75 167.069 129.187 168.741 130.65C170.406 132.1 172.829 132.825 176.003 132.825C177.906 132.825 179.458 132.662 180.66 132.325C181.875 131.993 182.82 131.662 183.49 131.325V87.6497C184.323 87.3997 185.631 87.1497 187.422 86.8997C189.225 86.6497 191.084 86.5247 193.006 86.5247C194.821 86.5247 196.462 86.6497 197.914 86.8997C199.379 87.1497 200.619 87.6497 201.62 88.3997C202.622 89.1497 203.386 90.1685 203.924 91.4497C204.475 92.7372 204.75 94.4185 204.75 96.4997V134.45C204.75 138.6 202.998 141.718 199.492 143.8C196.568 145.637 193.087 147.025 189.049 147.975C185.005 148.937 180.617 149.425 175.877 149.425C171.37 149.425 167.219 148.925 163.432 147.925C159.638 146.925 156.37 145.387 153.615 143.3C150.861 141.218 148.732 138.537 147.23 135.25C145.74 131.968 145.001 128 145.001 123.35V87.6497Z" fill="#65469B"/>
    <path d="M238.982 126.575C238.982 128.743 239.665 130.287 241.036 131.2C242.419 132.118 244.366 132.575 246.87 132.575C248.122 132.575 249.406 132.475 250.727 132.275C252.06 132.062 253.231 131.787 254.232 131.45C254.984 132.368 255.622 133.393 256.161 134.525C256.712 135.643 256.987 136.993 256.987 138.575C256.987 141.725 255.798 144.3 253.431 146.3C251.058 148.3 246.87 149.3 240.86 149.3C233.529 149.3 227.889 147.637 223.932 144.325C219.975 140.993 217.997 135.575 217.997 128.075V74.6747C218.899 74.4247 220.201 74.1622 221.904 73.8747C223.619 73.5747 225.441 73.4247 227.363 73.4247C231.031 73.4247 233.886 74.0684 235.927 75.3497C237.962 76.6372 238.982 79.3622 238.982 83.5247V91.5247H255.359C255.86 92.4247 256.336 93.5684 256.787 94.9497C257.25 96.3184 257.488 97.8372 257.488 99.4997C257.488 102.418 256.837 104.525 255.535 105.825C254.245 107.112 252.517 107.75 250.351 107.75H238.982V126.575Z" fill="#65469B"/>
    <path d="M267.243 69.9247C267.243 66.7622 268.301 64.0997 270.423 61.9497C272.539 59.7872 275.357 58.6997 278.862 58.6997C282.368 58.6997 285.179 59.7872 287.301 61.9497C289.417 64.0997 290.482 66.7622 290.482 69.9247C290.482 73.0935 289.417 75.7622 287.301 77.9247C285.179 80.0747 282.368 81.1497 278.862 81.1497C275.357 81.1497 272.539 80.0747 270.423 77.9247C268.301 75.7622 267.243 73.0935 267.243 69.9247ZM289.48 147.3C288.56 147.462 287.207 147.687 285.423 147.975C283.633 148.275 281.823 148.425 279.989 148.425C278.149 148.425 276.496 148.3 275.031 148.05C273.579 147.8 272.351 147.3 271.35 146.55C270.348 145.8 269.578 144.787 269.046 143.5C268.508 142.2 268.245 140.518 268.245 138.45V87.6497C269.146 87.4872 270.486 87.2622 272.276 86.9747C274.079 86.6747 275.895 86.5247 277.735 86.5247C279.57 86.5247 281.216 86.6497 282.669 86.8997C284.121 87.1497 285.348 87.6497 286.35 88.3997C287.351 89.1497 288.115 90.1685 288.654 91.4497C289.205 92.7372 289.48 94.4185 289.48 96.4997V147.3Z" fill="#65469B"/>
    <path d="M335.12 149.425C330.193 149.425 325.629 148.737 321.422 147.375C317.215 145.993 313.54 143.937 310.404 141.2C307.28 138.45 304.826 134.993 303.042 130.825C301.251 126.662 300.362 121.793 300.362 116.225C300.362 110.743 301.251 106.025 303.042 102.075C304.826 98.1122 307.18 94.8622 310.103 92.3247C313.021 89.7934 316.351 87.9247 320.095 86.7247C323.851 85.5122 327.689 84.8997 331.614 84.8997C336.022 84.8997 340.035 85.5684 343.659 86.8997C347.297 88.2372 350.427 90.0684 353.05 92.3997C355.667 94.7184 357.708 97.4997 359.16 100.75C360.625 104 361.364 107.537 361.364 111.35C361.364 114.187 360.569 116.35 358.985 117.85C357.395 119.35 355.185 120.312 352.349 120.725L321.472 125.325C322.386 128.075 324.265 130.143 327.107 131.525C329.943 132.893 333.192 133.575 336.848 133.575C340.266 133.575 343.497 133.143 346.539 132.275C349.594 131.393 352.073 130.368 353.977 129.2C355.31 130.037 356.437 131.2 357.357 132.7C358.271 134.2 358.734 135.787 358.734 137.45C358.734 141.187 356.982 143.968 353.476 145.8C350.821 147.218 347.823 148.175 344.486 148.675C341.143 149.175 338.025 149.425 335.12 149.425ZM331.614 100.375C329.611 100.375 327.871 100.712 326.406 101.375C324.953 102.043 323.764 102.9 322.85 103.95C321.929 104.987 321.235 106.143 320.771 107.425C320.32 108.712 320.051 110.018 319.97 111.35L341.355 107.875C341.105 106.212 340.185 104.543 338.601 102.875C337.011 101.212 334.682 100.375 331.614 100.375Z" fill="#65469B"/>
</svg>
